<svg xmlns="http://www.w3.org/2000/svg" viewBox="0 0 64 64" role="img" aria-label="BarFlow">
  <defs>
    <linearGradient id="bg" x1="0" y1="0" x2="1" y2="1">
      <stop offset="0%" stop-color="#0d6efd"/>
      <stop offset="100%" stop-color="#0a58ca"/>
    </linearGradient>
  </defs>
  <rect width="64" height="64" rx="14" fill="url(#bg)"/>
  <path fill="#ffffff" d="M18 24h22c1.1 0 2 .9 2 2v2h3c3.3 0 6 2.7 6 6s-2.7 6-6 6h-3.2c-1.2 5.2-5.8 9-11.3 9H24c-6.1 0-11-4.9-11-11V26c0-1.1.9-2 2-2zm26 6v8h3c1.7 0 3-1.3 3-3s-1.3-3-3-3h-3z"/>
  <path fill="#ffffff" opacity=".9" d="M26 14c0 2 1.2 3.2 1.2 5.2S26 22 26 22M32 13c0 2.4 1.4 3.6 1.4 5.8S32 23 32 23M38 14c0 2 1.2 3.2 1.2 5.2S38 22 38 22" stroke="#ffffff" stroke-width="2.2" stroke-linecap="round" fill="none"/>
</svg>
